<svg width="46" height="46" viewBox="0 0 46 46" fill="none" xmlns="http://www.w3.org/2000/svg">
<rect width="46" height="46" rx="23" fill="#2D2D2D"/>
<path d="M35 20V28.75C35 28.9821 34.9097 29.2046 34.7489 29.3687C34.5882 29.5328 34.3702 29.625 34.1429 29.625H30.7143V33.125C30.7143 33.3571 30.624 33.5796 30.4632 33.7437C30.3025 33.9078 30.0845 34 29.8571 34H16.1429C15.9155 34 15.6975 33.9078 15.5368 33.7437C15.376 33.5796 15.2857 33.3571 15.2857 33.125V29.625H11.8571C11.6298 29.625 11.4118 29.5328 11.2511 29.3687C11.0903 29.2046 11 28.9821 11 28.75V20C11 18.553 12.2171 17.375 13.7139 17.375H15.2857V13.875C15.2857 13.6429 15.376 13.4204 15.5368 13.2563C15.6975 13.0922 15.9155 13 16.1429 13H29.8571C30.0845 13 30.3025 13.0922 30.4632 13.2563C30.624 13.4204 30.7143 13.6429 30.7143 13.875V17.375H32.2861C33.7829 17.375 35 18.553 35 20ZM17 17.375H29V14.75H17V17.375ZM29 27H17V32.25H29V27ZM30.7143 22.1875C30.7143 21.9279 30.6389 21.6742 30.4976 21.4583C30.3563 21.2425 30.1555 21.0742 29.9206 20.9749C29.6857 20.8756 29.4271 20.8496 29.1777 20.9002C28.9283 20.9509 28.6992 21.0759 28.5194 21.2594C28.3396 21.443 28.2172 21.6768 28.1676 21.9314C28.118 22.186 28.1434 22.4499 28.2407 22.6898C28.338 22.9296 28.5028 23.1346 28.7143 23.2788C28.9257 23.423 29.1743 23.5 29.4286 23.5C29.7696 23.5 30.0966 23.3617 30.3377 23.1156C30.5788 22.8694 30.7143 22.5356 30.7143 22.1875Z" fill="#42B8B8"/>
</svg>
